<?xml version="1.0" encoding="UTF-8"?>
<svg viewBox="0 0 2000 479" xmlns="http://www.w3.org/2000/svg">
<path d="M13 12h90v313a45 45 0 0 0 90 0v-313h90v313a90 90 0 0 1 -90 90h-90a90 90 0 0 1 -90 -90zM296 102h90v45a45 45 0 0 1 45 -45h45a90 90 0 0 1 90 90v223h-90v-223a45 45 0 0 0 -90 0v223h-90zM759 191a45 45 0 0 0 -90 0c0 45 135 44 135 134a90 90 0 0 1 -90 90h-45a90 90 0 0 1 -90 -90h45a45 45 0 0 0 90 0c0 -45 -135 -44 -135 -133a90 90 0 0 1 90 -90h45a90 90 0 0 1 90 89zM796 102h45v-90h90v90h45v45h-45v178a45 45 0 0 0 45 45v45h-45a90 90 0 0 1 -90 -90v-178h-45zM978 191a90 90 0 0 1 90 -89h90a90 90 0 0 1 90 89v224h-90v-45a45 45 0 0 1 -45 45h-45a90 90 0 0 1 -90 -89v-1a90 90 0 0 1 90 -89h90v-45a45 45 0 0 0 -45 -44h-45a45 45 0 0 0 -45 44zM1158 281h-45a45 45 0 0 0 -45 44v1a45 45 0 0 0 90 0zM1240 102h45v-90h90v90h45v45h-45v178a45 45 0 0 0 45 45v45h-45a90 90 0 0 1 -90 -90v-178h-45zM1704 281h-180v44a45 45 0 0 0 45 45h45a45 45 0 0 0 45 -45h45a90 90 0 0 1 -90 90h-90a90 90 0 0 1 -90 -90v-133a90 90 0 0 1 90 -90h90a90 90 0 0 1 90 90zM1614 236v-44a45 45 0 0 0 -90 0v44zM1897 102v-90h90v403h-90v-45a45 45 0 0 1 -45 45h-45a90 90 0 0 1 -90 -90v-133a90 90 0 0 1 90 -90zM1897 147h-45a45 45 0 0 0 -45 45v133a45 45 0 0 0 90 0z" fill="#ee7ef6" stroke="#ee7ef6" stroke-linejoin="round" stroke-width="22"/>
<path d="M13 60h90v313a45 45 0 0 0 90 0v-313h90v313a90 90 0 0 1 -90 90h-90a90 90 0 0 1 -90 -90zM296 150h90v45a45 45 0 0 1 45 -45h45a90 90 0 0 1 90 90v223h-90v-223a45 45 0 0 0 -90 0v223h-90zM759 239a45 45 0 0 0 -90 0c0 45 135 44 135 134a90 90 0 0 1 -90 90h-45a90 90 0 0 1 -90 -90h45a45 45 0 0 0 90 0c0 -45 -135 -44 -135 -133a90 90 0 0 1 90 -90h45a90 90 0 0 1 90 89zM796 150h45v-90h90v90h45v45h-45v178a45 45 0 0 0 45 45v45h-45a90 90 0 0 1 -90 -90v-178h-45zM978 239a90 90 0 0 1 90 -89h90a90 90 0 0 1 90 89v224h-90v-45a45 45 0 0 1 -45 45h-45a90 90 0 0 1 -90 -89v-1a90 90 0 0 1 90 -89h90v-45a45 45 0 0 0 -45 -44h-45a45 45 0 0 0 -45 44zM1158 329h-45a45 45 0 0 0 -45 44v1a45 45 0 0 0 90 0zM1240 150h45v-90h90v90h45v45h-45v178a45 45 0 0 0 45 45v45h-45a90 90 0 0 1 -90 -90v-178h-45zM1704 329h-180v44a45 45 0 0 0 45 45h45a45 45 0 0 0 45 -45h45a90 90 0 0 1 -90 90h-90a90 90 0 0 1 -90 -90v-133a90 90 0 0 1 90 -90h90a90 90 0 0 1 90 90zM1614 284v-44a45 45 0 0 0 -90 0v44zM1897 150v-90h90v403h-90v-45a45 45 0 0 1 -45 45h-45a90 90 0 0 1 -90 -90v-133a90 90 0 0 1 90 -90zM1897 195h-45a45 45 0 0 0 -45 45v133a45 45 0 0 0 90 0z" fill="#ee7ef6" stroke="#ee7ef6" stroke-linejoin="round" stroke-width="22"/>
<path d="M13 62h90v313a45 45 0 0 0 90 0v-313h90v313a90 90 0 0 1 -90 90h-90a90 90 0 0 1 -90 -90zM296 152h90v45a45 45 0 0 1 45 -45h45a90 90 0 0 1 90 90v223h-90v-223a45 45 0 0 0 -90 0v223h-90zM759 231a45 45 0 0 0 -90 0c0 45 135 44 135 134a90 90 0 0 1 -90 90h-45a90 90 0 0 1 -90 -90h45a45 45 0 0 0 90 0c0 -45 -135 -44 -135 -133a90 90 0 0 1 90 -90h45a90 90 0 0 1 90 89zM796 152h45v-90h90v90h45v45h-45v178a45 45 0 0 0 45 45v45h-45a90 90 0 0 1 -90 -90v-178h-45zM978 241a90 90 0 0 1 90 -89h90a90 90 0 0 1 90 89v224h-90v-45a45 45 0 0 1 -45 45h-45a90 90 0 0 1 -90 -89v-1a90 90 0 0 1 90 -89h90v-45a45 45 0 0 0 -45 -44h-45a45 45 0 0 0 -45 44zM1158 331h-45a45 45 0 0 0 -45 44v1a45 45 0 0 0 90 0zM1240 152h45v-90h90v90h45v45h-45v178a45 45 0 0 0 45 45v45h-45a90 90 0 0 1 -90 -90v-178h-45zM1704 331h-180v44a45 45 0 0 0 45 45h45a45 45 0 0 0 45 -45h45a90 90 0 0 1 -90 90h-90a90 90 0 0 1 -90 -90v-133a90 90 0 0 1 90 -90h90a90 90 0 0 1 90 90zM1614 286v-44a45 45 0 0 0 -90 0v44zM1897 152v-90h90v403h-90v-45a45 45 0 0 1 -45 45h-45a90 90 0 0 1 -90 -90v-133a90 90 0 0 1 90 -90zM1897 197h-45a45 45 0 0 0 -45 45v133a45 45 0 0 0 90 0z" fill="#ee7ef6" stroke="#ee7ef6" stroke-linejoin="round" stroke-width="22"/>
<path d="M13 60h90v313a45 45 0 0 0 90 0v-313h90v313a90 90 0 0 1 -90 90h-90a90 90 0 0 1 -90 -90zM296 150h90v45a45 45 0 0 1 45 -45h45a90 90 0 0 1 90 90v223h-90v-223a45 45 0 0 0 -90 0v223h-90zM759 239a45 45 0 0 0 -90 0c0 45 135 44 135 134a90 90 0 0 1 -90 90h-45a90 90 0 0 1 -90 -90h45a45 45 0 0 0 90 0c0 -45 -135 -44 -135 -133a90 90 0 0 1 90 -90h45a90 90 0 0 1 90 89zM796 150h45v-90h90v90h45v45h-45v178a45 45 0 0 0 45 45v45h-45a90 90 0 0 1 -90 -90v-178h-45zM978 239a90 90 0 0 1 90 -89h90a90 90 0 0 1 90 89v224h-90v-45a45 45 0 0 1 -45 45h-45a90 90 0 0 1 -90 -89v-1a90 90 0 0 1 90 -89h90v-45a45 45 0 0 0 -45 -44h-45a45 45 0 0 0 -45 44zM1158 329h-45a45 45 0 0 0 -45 44v1a45 45 0 0 0 90 0zM1240 150h45v-90h90v90h45v45h-45v178a45 45 0 0 0 45 45v45h-45a90 90 0 0 1 -90 -90v-178h-45zM1704 329h-180v44a45 45 0 0 0 45 45h45a45 45 0 0 0 45 -45h45a90 90 0 0 1 -90 90h-90a90 90 0 0 1 -90 -90v-133a90 90 0 0 1 90 -90h90a90 90 0 0 1 90 90zM1614 284v-44a45 45 0 0 0 -90 0v44zM1897 150v-90h90v403h-90v-45a45 45 0 0 1 -45 45h-45a90 90 0 0 1 -90 -90v-133a90 90 0 0 1 90 -90zM1897 195h-45a45 45 0 0 0 -45 45v133a45 45 0 0 0 90 0z" fill="#fff"/>
</svg>